toy_leg_sim_states
version=1
nRows=31
nColumns=17
inDegrees=yes

# SIMM Motion File Header:
name toy_leg_sim_states
datacolumns 17
datarows 31
otherdata 1
range 0.00000000 0.23055898
endheader
time	/jointset/ground_block/xRotation/value	/jointset/ground_block/xRotation/speed	/jointset/ground_block/yRotation/value	/jointset/ground_block/yRotation/speed	/jointset/ground_block/zRotation/value	/jointset/ground_block/zRotation/speed	/jointset/ground_block/xTranslation/value	/jointset/ground_block/xTranslation/speed	/jointset/ground_block/yTranslation/value	/jointset/ground_block/yTranslation/speed	/jointset/ground_block/zTranslation/value	/jointset/ground_block/zTranslation/speed	/jointset/pin1/pin1_rot/value	/jointset/pin1/pin1_rot/speed	/jointset/pin2/pin2_rot/value	/jointset/pin2/pin2_rot/speed
      0.00000000	      0.00000000	      0.00000000	      0.00000000	      0.00000000	     40.00000000	      0.00000000	      0.00027798	      0.00000000	      1.10000000	      0.00000000	      0.00000000	      0.00000000	      0.00000000	      0.00000000	    -80.00000000	      0.00000000
      0.01000000	      0.00000000	      0.00000000	      0.00000000	      0.00000000	     39.99994017	     -0.01908037	      0.00025954	     -0.00363136	      1.09973859	     -0.05271723	      0.00000000	      0.00000000	     -0.07625628	    -15.14728198	    -79.66200677	     67.03668717
      0.02000000	      0.00000000	      0.00000000	      0.00000000	      0.00000000	     39.99943222	     -0.09381799	      0.00020763	     -0.00659037	      1.09892859	     -0.11052951	      0.00000000	      0.00000000	     -0.29889060	    -29.07478922	    -78.68146534	    127.43635417
      0.03000000	      0.00000000	      0.00000000	      0.00000000	      0.00000000	     39.99780238	     -0.24668829	      0.00013169	     -0.00837629	      1.09749596	     -0.17790646	      0.00000000	      0.00000000	     -0.64953635	    -40.53477166	    -77.15585016	    175.10816846
      0.04262225	      0.00000000	      0.00000000	      0.00000000	      0.00000000	     39.99278696	     -0.57423111	      0.00002163	     -0.00872629	      1.09461962	     -0.28163891	      0.00000000	      0.00000000	     -1.22514612	    -49.45894857	    -74.69530351	    209.37786445
      0.05524449	      0.00000000	      0.00000000	      0.00000000	      0.00000000	     39.98263923	     -1.05906466	     -0.00008150	     -0.00741413	      1.09028588	     -0.40901341	      0.00000000	      0.00000000	     -1.86283750	    -50.04786824	    -72.01813566	    208.71063881
      0.06786674	      0.00000000	      0.00000000	      0.00000000	      0.00000000	     39.96546881	     -1.68112782	     -0.00016282	     -0.00545060	      1.08419852	     -0.55898678	      0.00000000	      0.00000000	     -2.44797362	    -41.07182820	    -69.58085241	    171.63838935
      0.08048898	      0.00000000	      0.00000000	      0.00000000	      0.00000000	     39.93982416	     -2.39159517	     -0.00022034	     -0.00375060	      1.07609932	     -0.72672670	      0.00000000	      0.00000000	     -2.86220095	    -23.29312236	    -67.81838023	    103.21038249
      0.09311123	      0.00000000	      0.00000000	      0.00000000	      0.00000000	     39.90501499	     -3.12057245	     -0.00025976	     -0.00255651	      1.06580920	     -0.90474381	      0.00000000	      0.00000000	     -3.01179050	      0.15985581	    -67.05847957	     15.24277089
      0.10160696	      0.00000000	      0.00000000	      0.00000000	      0.00000000	     39.87651245	     -3.58296342	     -0.00027841	     -0.00181959	      1.05760738	     -1.02593990	      0.00000000	      0.00000000	     -2.93977115	     16.71600423	    -67.19310765	    -46.69456407
      0.11010270	      0.00000000	      0.00000000	      0.00000000	      0.00000000	     39.84427170	     -3.99731107	     -0.00029016	     -0.00090268	      1.04838298	     -1.14501477	      0.00000000	      0.00000000	     -2.73139640	     31.99659458	    -67.84006740	   -104.47912607
      0.11859844	      0.00000000	      0.00000000	      0.00000000	      0.00000000	     39.80877794	     -4.34632131	     -0.00029290	      0.00030869	      1.03816547	     -1.25930490	      0.00000000	      0.00000000	     -2.40384494	     44.55968884	    -68.94242821	   -153.15106465
      0.12709418	      0.00000000	      0.00000000	      0.00000000	      0.00000000	     39.77064009	     -4.61833777	     -0.00028420	      0.00176497	      1.02700588	     -1.36642781	      0.00000000	      0.00000000	     -1.98498967	     53.35560831	    -70.40531609	   -188.81105198
      0.13734725	      0.00000000	      0.00000000	      0.00000000	      0.00000000	     39.72206430	     -4.83697174	     -0.00025687	      0.00352499	      1.01238334	     -1.48347997	      0.00000000	      0.00000000	     -1.40757971	     58.20220221	    -72.47551443	   -211.02985917
      0.14760033	      0.00000000	      0.00000000	      0.00000000	      0.00000000	     39.67185353	     -4.93873552	     -0.00021382	      0.00472787	      0.99663790	     -1.58525077	      0.00000000	      0.00000000	     -0.81313457	     56.74922386	    -74.64957843	   -209.03686751
      0.15838279	      0.00000000	      0.00000000	      0.00000000	      0.00000000	     39.61852869	     -4.93538985	     -0.00016128	      0.00476991	      0.97904381	     -1.67542265	      0.00000000	      0.00000000	     -0.23658747	     49.28761044	    -76.77961517	   -182.06372093
      0.16916524	      0.00000000	      0.00000000	      0.00000000	      0.00000000	     39.56573438	     -4.84549211	     -0.00011677	      0.00321617	      0.96056350	     -1.75011744	      0.00000000	      0.00000000	      0.23305425	     37.18803854	    -78.49794992	   -133.52787464
      0.17994770	      0.00000000	      0.00000000	      0.00000000	      0.00000000	     39.51422615	     -4.70283530	     -0.00009726	      0.00019649	      0.94134453	     -1.81323417	      0.00000000	      0.00000000	      0.55461850	     22.09371564	    -79.60327194	    -69.51044912
      0.19073016	      0.00000000	      0.00000000	      0.00000000	      0.00000000	     39.46437455	     -4.54447318	     -0.00011571	     -0.00369486	      0.92148329	     -1.87025649	      0.00000000	      0.00000000	      0.70443837	      5.58527585	    -79.96821927	      2.46644404
      0.20151262	      0.00000000	      0.00000000	      0.00000000	      0.00000000	     39.41614768	     -4.40747746	     -0.00017694	     -0.00758471	      0.90101180	     -1.92750274	      0.00000000	      0.00000000	      0.67530225	    -10.85701771	    -79.55115022	     74.14819996
      0.21229507	      0.00000000	      0.00000000	      0.00000000	      0.00000000	     39.36912785	     -4.32580226	     -0.00027609	     -0.01060213	      0.87989332	     -1.99125880	      0.00000000	      0.00000000	      0.47585565	    -25.75109185	    -78.39996849	    137.30859906
      0.22307753	      0.00000000	      0.00000000	      0.00000000	      0.00000000	     39.32256303	     -4.32691858	     -0.00040024	     -0.01215730	      0.85802744	     -2.06691522	      0.00000000	      0.00000000	      0.13121467	    -37.51732373	    -76.64769259	    184.50897687
      0.22415578	      0.00000000	      0.00000000	      0.00000000	      0.00000000	     39.31789471	     -4.33235908	     -0.00041339	     -0.01222305	      0.85579430	     -2.07529731	      0.00000000	      0.00000000	      0.09024987	    -38.45874052	    -76.44678732	    188.10589411
      0.22954701	      0.00000000	      0.00000000	      0.00000000	      0.00000000	     39.29443452	     -4.37508134	     -0.00047971	     -0.01231391	      0.84448816	     -2.11966916	      0.00000000	      0.00000000	     -0.12829903	    -42.39561538	    -75.39089819	    202.61353188
      0.22974259	      0.00000000	      0.00000000	      0.00000000	      0.00000000	     39.29357861	     -4.37712398	     -0.00048211	     -0.01231003	      0.84407341	     -2.12135801	      0.00000000	      0.00000000	     -0.13660255	    -42.51283744	    -75.35122910	    203.02677922
      0.22997901	      0.00000000	      0.00000000	      0.00000000	      0.00000000	     39.29254349	     -4.37963942	     -0.00048502	     -0.01230470	      0.84357164	     -2.12340694	      0.00000000	      0.00000000	     -0.14666981	    -42.65202136	    -75.30317215	    203.51541826
      0.23011590	      0.00000000	      0.00000000	      0.00000000	      0.00000000	     39.29194386	     -4.38111914	     -0.00048671	     -0.01230130	      0.84328089	     -2.12459707	      0.00000000	      0.00000000	     -0.15251388	    -42.73135066	    -75.27529392	    203.79289386
      0.23025671	      0.00000000	      0.00000000	      0.00000000	      0.00000000	     39.29132684	     -4.38265903	     -0.00048844	     -0.01229755	      0.84298164	     -2.12582420	      0.00000000	      0.00000000	     -0.15853665	    -42.81198429	    -75.24657760	    204.07413541
      0.23036801	      0.00000000	      0.00000000	      0.00000000	      0.00000000	     39.29083901	     -4.38388888	     -0.00048981	     -0.01229441	      0.84274499	     -2.12679616	      0.00000000	      0.00000000	     -0.16330488	    -42.87501804	    -75.22385312	    204.29341421
      0.23046685	      0.00000000	      0.00000000	      0.00000000	      0.00000000	     39.29040563	     -4.38499059	     -0.00049102	     -0.01229150	      0.84253473	     -2.12766093	      0.00000000	      0.00000000	     -0.16754554	    -42.93048279	    -75.20365052	    204.48593243
      0.23055898	      0.00000000	      0.00000000	      0.00000000	      0.00000000	     39.29000162	     -4.38602541	     -0.00049215	     -0.01228868	      0.84233868	     -2.12846822	      0.00000000	      0.00000000	     -0.17150288	    -42.98173841	    -75.18480407	    204.66347421
